HIERARCHY
ROOT Hips
{
  OFFSET 57.1483 83.6867 5.22795
  CHANNELS 6 Xposition Yposition Zposition Zrotation Xrotation Yrotation
  JOINT spine
  {
    OFFSET 0 5.95438 0.342407
    CHANNELS 3 Zrotation Xrotation Yrotation
    JOINT spine1
    {
      OFFSET 0 8.85602 0
      CHANNELS 3 Zrotation Xrotation Yrotation
      JOINT spine2
      {
        OFFSET 0 8.48567 0
        CHANNELS 3 Zrotation Xrotation Yrotation
        JOINT Neck
        {
          OFFSET 0 21.7863 1.0387
          CHANNELS 3 Zrotation Xrotation Yrotation
          JOINT Head
          {
            OFFSET 0 6.5822 0
            CHANNELS 3 Zrotation Xrotation Yrotation
            End Site
            {
              OFFSET 0 15.9326 -5.25436
            }
          }
        }
        JOINT RightShoulder
        {
          OFFSET -3.57307 9.16386 -0.497525
          CHANNELS 3 Zrotation Xrotation Yrotation
          JOINT RightArm
          {
            OFFSET 0 12.0192 0
            CHANNELS 3 Zrotation Xrotation Yrotation
            JOINT RightArmRoll
            {
              OFFSET 0 6.06754 0
              CHANNELS 3 Zrotation Xrotation Yrotation
              JOINT RightForeArm
              {
                OFFSET 0 17.6726 0
                CHANNELS 3 Zrotation Xrotation Yrotation
                JOINT RightForeArmRoll
                {
                  OFFSET 0 6.80872 0
                  CHANNELS 3 Zrotation Xrotation Yrotation
                  JOINT RightHand
                  {
                    OFFSET 0 13.6636 0
                    CHANNELS 3 Zrotation Xrotation Yrotation
                    End Site
                    {
                      OFFSET 0 0 0
                    }
                  }
                }
              }
            }
          }
        }
        JOINT LeftShoulder
        {
          OFFSET 3.57307 9.16386 -0.497525
          CHANNELS 3 Zrotation Xrotation Yrotation
          JOINT LeftArm
          {
            OFFSET 0 12.0192 0
            CHANNELS 3 Zrotation Xrotation Yrotation
            JOINT LeftArmRoll
            {
              OFFSET 0 6.06755 0
              CHANNELS 3 Zrotation Xrotation Yrotation
              JOINT LeftForeArm
              {
                OFFSET 0 17.6726 0
                CHANNELS 3 Zrotation Xrotation Yrotation
                JOINT LeftForeArmRoll
                {
                  OFFSET 0 6.80872 0
                  CHANNELS 3 Zrotation Xrotation Yrotation
                  JOINT LeftHand
                  {
                    OFFSET 0 13.6636 0
                    CHANNELS 3 Zrotation Xrotation Yrotation
                    End Site
                    {
                      OFFSET 0 0 0
                    }
                  }
                }
              }
            }
          }
        }
      }
    }
  }
  JOINT RightUpLeg
  {
    OFFSET -5.27774 -0.967797 -0.811858
    CHANNELS 3 Zrotation Xrotation Yrotation
    JOINT RightUpLegRoll
    {
      OFFSET 0 16.0214 0
      CHANNELS 3 Zrotation Xrotation Yrotation
      JOINT RightLeg
      {
        OFFSET 0 -19.8401 0
        CHANNELS 3 Zrotation Xrotation Yrotation
        JOINT RightLegRoll
        {
          OFFSET 0 19.905 0
          CHANNELS 3 Zrotation Xrotation Yrotation
          JOINT RightFoot
          {
            OFFSET 0 16.5675 0
            CHANNELS 3 Zrotation Xrotation Yrotation
            JOINT RightToeBase
            {
              OFFSET 0 13.8496 0
              CHANNELS 3 Zrotation Xrotation Yrotation
              End Site
              {
                OFFSET 0.00587034 6.70727 -0.773117
              }
            }
          }
        }
      }
    }
  }
  JOINT LeftUpLeg
  {
    OFFSET 5.27774 -0.967797 -0.811858
    CHANNELS 3 Zrotation Xrotation Yrotation
    JOINT LeftUpLegRoll
    {
      OFFSET 0 16.0215 0
      CHANNELS 3 Zrotation Xrotation Yrotation
      JOINT LeftLeg
      {
        OFFSET 0 19.84 0
        CHANNELS 3 Zrotation Xrotation Yrotation
        JOINT LeftLegRoll
        {
          OFFSET 0 20.089 0
          CHANNELS 3 Zrotation Xrotation Yrotation
          JOINT LeftFoot
          {
            OFFSET 0 16.3835 0
            CHANNELS 3 Zrotation Xrotation Yrotation
            JOINT LeftToeBase
            {
              OFFSET 0 13.8496 0
              CHANNELS 3 Zrotation Xrotation Yrotation
              End Site
              {
                OFFSET -0.0263083 6.70728 -0.773117
              }
            }
          }
        }
      }
    }
  }
}
MOTION
Frames: 11
Frame Time: 0.00208333
53.9507 72.0783 2.56515 -1.76809 1.23291 8.93921 0.62537 1.88223 0.107156 1.25514 7.76754 0.101766 1.25722 9.41242 0.0806545 -11.7068 -16.9146 -11.8685 16.4048 -5.29768 -10.6 55.3664 -5.45985 -3.13598 128.759 19.6011 -30.0204 3.61485e-006 1.56735e-006 -1.13206e-006 -3.64051 -0.0265916 -1.99255 -1.89391e-006 -3.04794e-007 -3.01161 8.03009 -4.95138 0.697651 -54.186 -3.67385 1.82495 -133.649 22.5629 34.8313 -1.49102e-007 2.71916e-006 9.77861e-007 3.63949 -0.0268832 1.99261 1.45137e-005 -4.38367e-006 3.01161 -8.0301 -4.95139 -0.697639 -178.351 35.0685 3.64931 -180 7.01388e-015 178.374 179.97 67.1164 177.712 -5.46975e-007 2.83684e-007 2.50476 -81.9641 83.0806 81.6937 8.8585 34.9028 -3.86534 171.851 39.9223 9.65628 4.54188e-006 -4.6773e-006 -1.73417 17.1742 -70.5671 14.9886 2.69672e-006 1.70724e-006 -2.76763 34.6202 79.0253 -37.6965 -8.71328 39.5499 2.10408 
53.9853 72.1294 2.72157 -1.79967 1.2812 8.93668 0.632239 1.84749 0.107678 1.2688 7.69807 0.103418 1.27087 9.34293 0.082053 -11.7497 -17.0497 -11.8956 16.3274 -5.01923 -10.6621 55.201 -5.61326 -3.23678 128.947 19.6889 -30.2468 3.61485e-006 1.56735e-006 -1.13206e-006 -3.64051 -0.0265916 -1.99255 -1.89391e-006 -3.04794e-007 -3.01161 8.03009 -4.95138 0.697651 -54.1904 -3.73714 1.86457 -133.713 22.59 34.9019 -1.49102e-007 2.71916e-006 9.77861e-007 3.63949 -0.0268832 1.99261 1.45137e-005 -4.38367e-006 3.01161 -8.0301 -4.95139 -0.697639 -178.385 35.0933 3.68265 -180 7.01389e-015 178.376 179.913 67.0743 177.754 -5.46976e-007 2.83684e-007 2.50118 -81.3634 83.0702 81.1085 8.86328 34.9615 -3.86791 171.965 39.9105 9.52522 4.54188e-006 -4.67731e-006 -1.7251 16.9446 -70.4466 14.8061 2.69672e-006 1.70724e-006 -2.75412 34.8884 79.0979 -37.9616 -8.72333 39.4505 2.15555 
53.898 72.0701 2.59081 -1.83655 1.40335 8.95901 0.644166 1.79172 0.108774 1.29254 7.58655 0.106108 1.29459 9.23141 0.084317 -11.8495 -17.1374 -11.931 16.2719 -4.74948 -10.7399 54.9824 -5.80546 -3.36205 129.158 19.7341 -30.4807 3.61485e-006 1.56735e-006 -1.13206e-006 -3.64051 -0.0265916 -1.99255 -1.89391e-006 -3.04794e-007 -3.01161 8.03009 -4.95138 0.697651 -54.2532 -3.77755 1.89485 -133.728 22.6049 34.9175 -1.49102e-007 2.71916e-006 9.77861e-007 3.63949 -0.0268832 1.99261 1.45137e-005 -4.38367e-006 3.01161 -8.0301 -4.95139 -0.697639 -178.442 35.194 3.72321 -180 7.0139e-015 178.38 179.836 67.0138 177.81 -5.46975e-007 2.83683e-007 2.49469 -80.6822 83.0569 80.4432 8.86702 35.0084 -3.8698 172.053 39.957 9.42727 4.54188e-006 -4.67731e-006 -1.71334 16.6836 -70.2888 14.5908 2.69672e-006 1.70724e-006 -2.73845 35.2172 79.1846 -38.2847 -8.73076 39.3017 2.20558 
53.9004 72.0845 2.56935 -1.87797 1.58864 9.00255 0.66037 1.7179 0.110364 1.32482 7.43894 0.109692 1.32685 9.08377 0.0873292 -11.9987 -17.185 -11.9735 16.2363 -4.48634 -10.8309 54.7173 -6.03071 -3.50829 129.387 19.7419 -30.7206 3.61485e-006 1.56735e-006 -1.13206e-006 -3.64051 -0.0265916 -1.99255 -1.89391e-006 -3.04794e-007 -3.01161 8.03009 -4.95138 0.697651 -54.3663 -3.79854 1.91731 -133.7 22.6084 34.8843 -1.49102e-007 2.71916e-006 9.77861e-007 3.63949 -0.0268832 1.99261 1.45137e-005 -4.38367e-006 3.01161 -8.0301 -4.95139 -0.697639 -178.517 35.3577 3.76934 -180 7.01392e-015 178.385 179.74 66.9334 177.878 -5.46975e-007 2.83683e-007 2.48548 -79.9171 83.0403 79.6941 8.86989 35.0452 -3.87112 172.119 40.0516 9.3569 4.54188e-006 -4.67731e-006 -1.69926 16.3943 -70.0952 14.3462 2.69672e-006 1.70724e-006 -2.72066 35.5949 79.2813 -38.654 -8.73569 39.1107 2.25406 
53.8972 72.1184 2.53552 -1.92323 1.82634 9.06365 0.680073 1.62899 0.11237 1.36409 7.26114 0.114027 1.3661 8.90596 0.0909725 -12.1896 -17.1999 -12.0219 16.2183 -4.22769 -10.933 54.4126 -6.2833 -3.67205 129.632 19.7176 -30.9649 3.61485e-006 1.56735e-006 -1.13206e-006 -3.64051 -0.0265916 -1.99255 -1.89391e-006 -3.04794e-007 -3.01161 8.03009 -4.95138 0.697651 -54.5217 -3.80357 1.93342 -133.634 22.6012 34.8086 -1.49102e-007 2.71916e-006 9.77861e-007 3.63949 -0.0268832 1.99261 1.45137e-005 -4.38367e-006 3.01161 -8.0301 -4.95139 -0.697639 -178.607 35.5712 3.81938 -180 7.01395e-015 178.392 179.629 66.8318 177.956 -5.46975e-007 2.83683e-007 2.4737 -79.0649 83.0199 78.8574 8.87203 35.0737 -3.87196 172.168 40.1839 9.30878 4.54188e-006 -4.67731e-006 -1.68323 16.0797 -69.8673 14.0756 2.69672e-006 1.70724e-006 -2.70085 36.0091 79.3842 -39.0573 -8.73831 38.8847 2.30088 
53.9973 72.2248 2.54819 -1.97165 2.10573 9.13867 0.702498 1.52795 0.114715 1.4088 7.0591 0.118968 1.41077 8.70389 0.0951298 -12.415 -17.1896 -12.0749 16.2156 -3.97144 -11.0439 54.0751 -6.5575 -3.84983 129.888 19.6664 -31.2124 3.61485e-006 1.56735e-006 -1.13206e-006 -3.64051 -0.0265916 -1.99255 -1.89391e-006 -3.04794e-007 -3.01161 8.03009 -4.95138 0.697651 -54.7115 -3.7961 1.9447 -133.537 22.5839 34.6968 -1.49102e-007 2.71916e-006 9.77861e-007 3.63949 -0.0268832 1.99261 1.45137e-005 -4.38367e-006 3.01161 -8.0301 -4.95139 -0.697639 -178.71 35.8216 3.87163 -180 7.01398e-015 178.401 179.506 66.7077 178.042 -5.46975e-007 2.83683e-007 2.45954 -78.123 82.995 77.9304 8.87361 35.0958 -3.87243 172.204 40.3434 9.27761 4.54188e-006 -4.67731e-006 -1.66561 15.743 -69.6067 13.7827 2.69672e-006 1.70724e-006 -2.67907 36.4466 79.4894 -39.4813 -8.73885 38.6307 2.34598 
53.958 72.1924 2.36253 -2.02249 2.41607 9.22397 0.726863 1.41775 0.117318 1.4574 6.83873 0.124372 1.45933 8.48351 0.0996843 -12.6671 -17.1615 -12.1313 16.2262 -3.71547 -11.1612 53.7119 -6.8476 -4.03814 130.153 19.5934 -31.4616 3.61485e-006 1.56735e-006 -1.13206e-006 -3.64051 -0.0265916 -1.99255 -1.89391e-006 -3.04794e-007 -3.01161 8.03009 -4.95138 0.697651 -54.9274 -3.77958 1.95265 -133.414 22.5572 34.5553 -1.49102e-007 2.71916e-006 9.77861e-007 3.63949 -0.0268832 1.99261 1.45137e-005 -4.38367e-006 3.01161 -8.0301 -4.95139 -0.697639 -178.82 36.0959 3.92436 -180 7.01401e-015 178.41 179.375 66.5598 178.134 -5.46975e-007 2.83683e-007 2.44317 -77.0895 82.9649 76.9106 8.87478 35.1133 -3.87264 172.233 40.5196 9.25811 4.54188e-006 -4.67731e-006 -1.64677 15.3873 -69.315 13.4711 2.69672e-006 1.70724e-006 -2.65541 36.8931 79.5932 -39.9117 -8.73756 38.356 2.38931 
54.0775 72.2401 2.34053 -2.0749 2.74666 9.31585 0.75239 1.30136 0.120103 1.50833 6.60598 0.130095 1.51021 8.25073 0.10452 -12.9387 -17.1229 -12.1901 16.2476 -3.45768 -11.2827 53.33 -7.14789 -4.23346 130.424 19.504 -31.7113 3.61485e-006 1.56735e-006 -1.13206e-006 -3.64051 -0.0265916 -1.99255 -1.89391e-006 -3.04794e-007 -3.01161 8.03009 -4.95138 0.697651 -55.1617 -3.75747 1.95877 -133.272 22.5217 34.3905 -1.49102e-007 2.71916e-006 9.77861e-007 3.63949 -0.0268832 1.99261 1.45137e-005 -4.38367e-006 3.01161 -8.0301 -4.95139 -0.697639 -178.935 36.3811 3.97574 -180 7.01404e-015 178.421 179.239 66.3868 178.228 -5.46975e-007 2.83683e-007 2.42477 -75.963 82.9289 75.7964 8.8757 35.1279 -3.8727 172.259 40.7021 9.245 4.54188e-006 -4.67731e-006 -1.62707 15.0157 -68.9936 13.144 2.69672e-006 1.70724e-006 -2.62993 37.3331 79.6919 -40.3329 -8.73474 38.0675 2.43083 
53.9527 72.3606 2.3842 -2.12791 3.08682 9.4106 0.778297 1.18173 0.12299 1.56005 6.36677 0.135995 1.56186 8.0115 0.10952 -13.2223 -17.0812 -12.2499 16.2776 -3.19596 -11.4062 52.9368 -7.45269 -4.43228 130.696 19.4031 -31.9601 3.61485e-006 1.56735e-006 -1.13206e-006 -3.64051 -0.0265916 -1.99255 -1.89391e-006 -3.04794e-007 -3.01161 8.03009 -4.95138 0.697651 -55.406 -3.73323 1.96457 -133.117 22.4779 34.2086 -1.49102e-007 2.71916e-006 9.77861e-007 3.63949 -0.0268832 1.99261 1.45137e-005 -4.38367e-006 3.01161 -8.0301 -4.95139 -0.697639 -179.051 36.6642 4.02389 -180 7.01408e-015 178.431 179.101 66.1873 178.324 -5.46975e-007 2.83683e-007 2.4045 -74.7431 82.8859 74.5868 8.87653 35.1416 -3.8727 172.286 40.8805 9.23289 4.54188e-006 -4.67731e-006 -1.60688 14.6308 -68.6442 12.8047 2.69672e-006 1.70724e-006 -2.60271 37.7498 79.7819 -40.7282 -8.73071 37.7726 2.47053 
54.0149 72.4366 2.38289 -2.18039 3.42587 9.50446 0.803802 1.06184 0.125902 1.61098 6.12704 0.141929 1.61272 7.77174 0.11457 -13.5104 -17.0439 -12.3097 16.3138 -2.92817 -11.5294 52.5395 -7.75633 -4.63102 130.969 19.296 -32.2068 3.61485e-006 1.56735e-006 -1.13206e-006 -3.64051 -0.0265916 -1.99255 -1.89391e-006 -3.04794e-007 -3.01161 8.03009 -4.95138 0.697651 -55.6525 -3.71031 1.97154 -132.953 22.4265 34.0162 -1.49102e-007 2.71916e-006 9.77861e-007 3.63949 -0.0268832 1.99261 1.45137e-005 -4.38367e-006 3.01161 -8.0301 -4.95139 -0.697639 -179.165 36.9323 4.06683 -180 -7.01412e-015 178.442 178.965 65.96 178.418 -5.46975e-007 2.83683e-007 2.38255 -73.4302 82.8349 73.2821 8.87742 35.1561 -3.87276 172.32 41.0441 9.21634 4.54188e-006 -4.67731e-006 -1.58658 14.2354 -68.2683 12.4563 2.69672e-006 1.70724e-006 -2.57382 38.1253 79.8596 -41.0798 -8.72583 37.4782 2.50841 
53.9132 72.6481 2.51541 -2.23104 3.7532 9.59362 0.82812 0.944652 0.128759 1.65957 5.8927 0.147754 1.66122 7.53737 0.119554 -13.7958 -17.0184 -12.3683 16.354 -2.65222 -11.6501 52.1458 -8.05313 -4.8261 131.237 19.1877 -32.4502 3.61485e-006 1.56735e-006 -1.13206e-006 -3.64051 -0.0265916 -1.99255 -1.89391e-006 -3.04794e-007 -3.01161 8.03009 -4.95138 0.697651 -55.8931 -3.69216 1.9812 -132.788 22.3683 33.8195 -1.49102e-007 2.71916e-006 9.77861e-007 3.63949 -0.0268832 1.99261 1.45137e-005 -4.38367e-006 3.01161 -8.0301 -4.95139 -0.697639 -179.271 37.1723 4.10253 -180 7.01415e-015 178.453 178.834 65.7037 178.509 -5.46975e-007 2.83683e-007 2.35908 -72.026 82.775 71.8834 8.87854 35.1733 -3.87298 172.365 41.1827 9.18987 4.54188e-006 -4.67731e-006 -1.56651 13.8319 -67.8676 12.1015 2.69672e-006 1.70724e-006 -2.54333 38.4411 79.9216 -41.3691 -8.72046 37.1916 2.54446 
